<?xml version="1.0" encoding="iso-8859-1"?>
<!-- Uploaded to: SVG Repo, www.svgrepo.com, Generator: SVG Repo Mixer Tools -->
<svg height="800px" width="800px" version="1.1" id="Layer_1" xmlns="http://www.w3.org/2000/svg" xmlns:xlink="http://www.w3.org/1999/xlink" 
	 viewBox="0 0 442.129 442.129" xml:space="preserve">
<g transform="translate(0 -1020.36)" shape-rendering="auto" image-rendering="auto" color-rendering="auto" color-interpolation="sRGB">
	<path style="fill:#EE746C;" d="M325.326,1138.198c18.259,0,32.893,14.512,32.893,32.771c0,18.262-14.634,32.895-32.893,32.895
		s-32.772-14.635-32.772-32.895C292.554,1152.71,307.067,1138.198,325.326,1138.198z"/>
	<g>
		<path style="fill:#29A3EC;" d="M15.643,1311.759c-8.835,0.199-15.837,7.521-15.639,16.357c0.124,5.523,3.089,10.592,7.843,13.408
			c0,0,7.204,4.348,16.417,8.738c9.214,4.391,19.87,9.563,33.071,9.568c13.167,0.004,22.51-6.314,28.937-10.277
			c6.427-3.961,9.967-5.551,12.047-5.551c2.082,0,5.739,1.584,12.165,5.551c6.427,3.961,15.655,10.277,28.819,10.277
			s22.392-6.316,28.819-10.277c6.427-3.961,10.083-5.551,12.165-5.551c2.082,0,5.621,1.584,12.047,5.551
			c6.427,3.961,15.655,10.277,28.819,10.277c13.163,0,22.51-6.316,28.937-10.277c6.427-3.961,9.965-5.551,12.047-5.551
			c2.082,0,5.621,1.584,12.047,5.551c6.427,3.961,15.773,10.277,28.937,10.277c13.164,0,22.392-6.316,28.819-10.277
			c6.427-3.961,10.083-5.551,12.165-5.551c2.082,0,5.621,1.584,12.047,5.551c6.427,3.961,15.655,10.277,28.819,10.277
			c13.177,0.006,23.973-5.086,33.189-9.449c9.216-4.367,16.299-8.738,16.299-8.738c7.535-4.631,9.888-14.494,5.257-22.029
			c-4.631-7.533-14.494-9.887-22.028-5.256c0,0-5.719,3.533-13.228,7.088c-7.509,3.555-17.377,6.379-19.488,6.377
			c-2.082,0-5.621-1.584-12.047-5.553c-6.427-3.961-15.655-10.275-28.819-10.275c-13.164,0-22.51,6.316-28.937,10.275
			c-6.427,3.961-9.965,5.553-12.047,5.553c-2.082,0-5.621-1.584-12.047-5.553c-6.427-3.961-15.774-10.275-28.937-10.275
			c-13.164,0-22.392,6.316-28.819,10.275c-6.427,3.961-10.083,5.553-12.165,5.553c-2.082,0-5.621-1.584-12.047-5.553
			c-6.427-3.961-15.655-10.275-28.819-10.275c-13.163,0-22.51,6.316-28.937,10.275c-6.427,3.961-9.965,5.553-12.047,5.553
			c-2.082,0-5.621-1.584-12.047-5.553c-6.427-3.961-15.774-10.275-28.937-10.275c-13.166,0-22.393,6.316-28.819,10.275
			c-6.426,3.961-9.969,5.553-12.047,5.553c-2.104-0.002-11.985-2.801-19.488-6.377c-7.503-3.574-13.228-7.205-13.228-7.205
			c-2.714-1.721-5.883-2.586-9.095-2.48L15.643,1311.759z"/>
		<path style="fill:#3CDEF6;" d="M15.643,1266.876c-8.835,0.199-15.837,7.521-15.639,16.357c0.124,5.523,3.089,10.592,7.843,13.408
			c0,0,7.204,4.348,16.417,8.738c9.214,4.391,19.87,9.563,33.071,9.568c13.167,0.004,22.51-6.314,28.937-10.277
			c6.427-3.961,9.967-5.551,12.047-5.551c2.082,0,5.739,1.584,12.165,5.551c6.427,3.961,15.655,10.277,28.819,10.277
			s22.392-6.316,28.819-10.277c6.427-3.961,10.083-5.551,12.165-5.551c2.082,0,5.621,1.584,12.047,5.551
			c6.427,3.961,15.655,10.277,28.819,10.277c13.163,0,22.51-6.316,28.937-10.277c6.427-3.961,9.965-5.551,12.047-5.551
			c2.082,0,5.621,1.584,12.047,5.551c6.427,3.961,15.773,10.277,28.937,10.277c13.164,0,22.392-6.316,28.819-10.277
			c6.427-3.961,10.083-5.551,12.165-5.551c2.082,0,5.621,1.584,12.047,5.551c6.427,3.961,15.655,10.277,28.819,10.277
			c13.177,0.006,23.973-5.086,33.189-9.449c9.216-4.367,16.299-8.74,16.299-8.74c7.547-4.609,9.928-14.465,5.317-22.014
			c-4.61-7.547-14.466-9.926-22.013-5.316c-0.025,0.016-0.051,0.031-0.076,0.047c0,0-5.719,3.531-13.228,7.086
			c-7.509,3.557-17.377,6.379-19.488,6.379c-2.082,0-5.621-1.584-12.047-5.553c-6.427-3.961-15.655-10.275-28.819-10.275
			c-13.164,0-22.51,6.314-28.937,10.275s-9.965,5.553-12.047,5.553c-2.082,0-5.621-1.584-12.047-5.553
			c-6.427-3.961-15.774-10.275-28.937-10.275c-13.164,0-22.392,6.314-28.819,10.275c-6.427,3.961-10.083,5.553-12.165,5.553
			c-2.082,0-5.621-1.584-12.047-5.553c-6.427-3.961-15.655-10.275-28.819-10.275c-13.163,0-22.51,6.314-28.937,10.275
			c-6.427,3.961-9.965,5.553-12.047,5.553c-2.082,0-5.621-1.584-12.047-5.553c-6.427-3.961-15.774-10.275-28.937-10.275
			c-13.166,0-22.393,6.314-28.819,10.275c-6.426,3.961-9.969,5.553-12.047,5.553c-2.104-0.002-11.985-2.801-19.488-6.379
			c-7.503-3.572-13.228-7.086-13.228-7.086C22.037,1267.712,18.867,1266.805,15.643,1266.876z"/>
		<g>
			<path style="fill:#5A3392;" d="M12.336,1251.05c-4.389,0.51-7.535,4.48-7.026,8.869c0.292,2.518,1.759,4.748,3.955,6.012
				c0,0,6.921,4.203,15.827,8.385c8.906,4.184,19.619,8.736,30.118,8.738c10.467,0.004,18.4-5.133,24.921-9.094
				c6.521-3.961,11.532-6.73,16.535-6.73c5.004,0,10.133,2.77,16.654,6.73c6.521,3.961,14.456,9.094,24.921,9.094
				c10.465,0,18.4-5.133,24.921-9.094c6.521-3.961,11.649-6.73,16.654-6.73c5.004,0,10.133,2.77,16.654,6.73
				c6.521,3.961,14.456,9.094,24.921,9.094c10.465,0,18.4-5.133,24.921-9.094c6.521-3.961,11.649-6.73,16.654-6.73
				c5.004,0,10.015,2.77,16.535,6.73c6.521,3.961,14.574,9.094,25.039,9.094c10.465,0,18.4-5.133,24.921-9.094
				c6.521-3.961,11.531-6.73,16.535-6.73c5.004,0,10.133,2.77,16.654,6.73c6.521,3.961,14.456,9.094,24.921,9.094
				c10.483,0.006,21.209-4.582,30.118-8.738c8.909-4.16,15.709-8.27,15.709-8.27c3.755-2.33,4.91-7.262,2.581-11.018
				c-2.289-3.689-7.103-4.879-10.848-2.682c0,0-6.23,3.797-14.291,7.559c-8.061,3.762-18.238,7.09-23.268,7.086
				c-5.004,0-10.133-2.775-16.654-6.732c-6.521-3.961-14.456-9.094-24.921-9.094s-18.4,5.135-24.921,9.094
				c-6.521,3.961-11.531,6.732-16.535,6.732c-5.004,0-10.133-2.775-16.654-6.732c-6.521-3.961-14.456-9.094-24.921-9.094
				c-10.465,0-18.4,5.135-24.921,9.094c-6.521,3.961-11.649,6.732-16.654,6.732c-5.004,0-10.133-2.775-16.654-6.732
				c-6.521-3.961-14.456-9.094-24.921-9.094c-10.465,0-18.4,5.135-24.921,9.094c-6.521,3.961-11.649,6.732-16.654,6.732
				c-5.004,0-10.015-2.775-16.535-6.732c-6.521-3.961-14.574-9.094-25.039-9.094c-10.466,0-18.401,5.135-24.921,9.094
				c-6.52,3.961-11.533,6.734-16.535,6.732c-5.031-0.002-15.211-3.422-23.268-7.205c-8.056-3.785-14.291-7.559-14.291-7.559
				c-1.579-1.004-3.459-1.422-5.315-1.184L12.336,1251.05z"/>
			<path style="fill:#5A3392;" d="M13.044,1299.003c-4.416,0.162-7.863,3.875-7.7,8.291c0.1,2.721,1.578,5.203,3.921,6.59
				c0,0,6.921,4.203,15.827,8.385c8.906,4.186,19.619,8.736,30.118,8.74c10.467,0.004,18.4-5.135,24.921-9.094
				c6.521-3.961,11.532-6.732,16.535-6.732c5.004,0,10.133,2.775,16.654,6.732c6.521,3.961,14.456,9.094,24.921,9.094
				c10.465,0,18.4-5.135,24.921-9.094c6.521-3.961,11.649-6.732,16.654-6.732c5.004,0,10.133,2.775,16.654,6.732
				c6.521,3.961,14.456,9.094,24.921,9.094c10.465,0,18.4-5.135,24.921-9.094c6.521-3.961,11.649-6.732,16.654-6.732
				c5.004,0,10.015,2.775,16.535,6.732c6.521,3.961,14.574,9.094,25.039,9.094c10.465,0,18.4-5.135,24.921-9.094
				c6.521-3.961,11.531-6.732,16.535-6.732c5.004,0,10.133,2.775,16.654,6.732c6.521,3.961,14.456,9.094,24.921,9.094
				c10.483,0.006,21.209-4.463,30.118-8.623c8.909-4.16,15.709-8.385,15.709-8.385c3.783-2.283,5-7.201,2.717-10.984
				c-2.283-3.783-7.201-5-10.984-2.717l0,0c0,0-6.23,3.799-14.291,7.559c-8.061,3.762-18.238,7.207-23.268,7.205
				c-5.004,0-10.133-2.889-16.654-6.85c-6.521-3.961-14.456-8.977-24.921-8.977s-18.4,5.02-24.921,8.977
				c-6.521,3.961-11.531,6.85-16.535,6.85c-5.004,0-10.133-2.889-16.654-6.85c-6.521-3.961-14.456-8.977-24.921-8.977
				c-10.465,0-18.4,5.02-24.921,8.977c-6.521,3.961-11.649,6.85-16.654,6.85c-5.004,0-10.133-2.889-16.654-6.85
				c-6.521-3.961-14.456-8.977-24.921-8.977c-10.465,0-18.4,5.02-24.921,8.977c-6.521,3.961-11.649,6.85-16.654,6.85
				c-5.004,0-10.015-2.889-16.535-6.85c-6.521-3.961-14.574-8.977-25.039-8.977c-10.466,0-18.401,5.014-24.921,8.977
				c-6.52,3.961-11.533,6.854-16.535,6.85c-5.031-0.002-15.211-3.422-23.268-7.205s-14.291-7.559-14.291-7.559
				C16.283,1299.407,14.676,1298.956,13.044,1299.003L13.044,1299.003z"/>
			<path style="fill:#5A3392;" d="M221.273,1123.018c-0.397,0.023-0.792,0.078-1.181,0.16l-96.024,15.943
				c-4.371,0.717-7.332,4.842-6.615,9.213c0.718,4.371,4.842,7.332,9.213,6.615l90.945-15.119l24.213,36.496l-136.181,75.709
				c-4.074,1.711-5.989,6.4-4.278,10.475c1.711,4.074,6.401,5.99,10.475,4.279c0.521-0.219,1.017-0.492,1.481-0.816l143.976-79.961
				c3.836-2.193,5.169-7.08,2.976-10.916c-0.082-0.145-0.169-0.285-0.26-0.424l-32.008-48.07c-1.503-2.242-4.034-3.574-6.732-3.545
				L221.273,1123.018z"/>
		</g>
	</g>
	<path style="fill:#FB9761;" d="M332.774,1149.546c9.565,0,17.231,7.604,17.231,17.168s-7.666,17.23-17.231,17.23
		s-17.167-7.666-17.167-17.23S323.21,1149.546,332.774,1149.546z"/>
	<path style="fill:#5A3392;" d="M346.84,1213.93c-19.16,9.58-42.478,5.305-56.929-10.512c-14.451-15.813-16.577-39.416-5.315-57.639
		c11.262-18.221,33.252-26.758,53.858-20.904c20.606,5.854,34.961,24.758,34.961,46.182c-0.002,4.436-3.599,8.029-8.035,8.027
		c-4.433-0.002-8.026-3.594-8.028-8.027c0-14.342-9.472-26.906-23.268-30.828c-13.796-3.918-28.366,1.736-35.906,13.938
		c-7.54,12.199-6.132,27.916,3.543,38.504c9.675,10.586,25.086,13.383,37.913,6.969c3.96-1.963,8.761-0.342,10.723,3.619
		C352.3,1207.178,350.733,1211.932,346.84,1213.93L346.84,1213.93z"/>
</g>
</svg>