<?xml version="1.0" encoding="utf-8"?><!-- Uploaded to: SVG Repo, www.svgrepo.com, Generator: SVG Repo Mixer Tools -->
<svg width="800px" height="800px" viewBox="0 0 400 400" fill="none" xmlns="http://www.w3.org/2000/svg">
<path d="M78.7479 60.0037C83.377 54.6347 88.0771 47.9354 95.2207 46.1313C131.924 36.8576 143.022 87.1789 111.696 103.006C79.9272 119.058 53.8838 86.9158 69.8238 57.9221" stroke="#000000" stroke-opacity="0.9" stroke-width="16" stroke-linecap="round" stroke-linejoin="round"/>
<path d="M66.266 129.041C74.1638 208.803 63.6079 287.374 63.6079 366.643" stroke="#000000" stroke-opacity="0.9" stroke-width="16" stroke-linecap="round" stroke-linejoin="round"/>
<path d="M119.513 126.246C115.111 205.353 117.226 284.88 117.226 363.848" stroke="#000000" stroke-opacity="0.9" stroke-width="16" stroke-linecap="round" stroke-linejoin="round"/>
<path d="M125.431 127.074C136.839 143.93 157.488 149.045 173.242 160.296" stroke="#000000" stroke-opacity="0.9" stroke-width="16" stroke-linecap="round" stroke-linejoin="round"/>
<path d="M172.43 83.3105C177.861 116.997 182.966 150.51 182.966 184.605" stroke="#000000" stroke-opacity="0.9" stroke-width="16" stroke-linecap="round" stroke-linejoin="round"/>
<path d="M268.035 84.9346C266.995 117.072 264.261 148.872 260.742 180.557" stroke="#000000" stroke-opacity="0.9" stroke-width="16" stroke-linecap="round" stroke-linejoin="round"/>
<path d="M216.999 80.8838C229.651 93.5159 213.768 117.38 217.81 129.503C218.176 130.599 252.922 130.414 253.467 129.503C260.391 117.964 260.117 97.2057 261.571 84.1236" stroke="#000000" stroke-opacity="0.5" stroke-width="16" stroke-linecap="round" stroke-linejoin="round"/>
<path d="M170.811 84.1207C187.634 79.3714 205.82 80.0703 223.487 80.0703" stroke="#000000" stroke-opacity="0.9" stroke-width="16" stroke-linecap="round" stroke-linejoin="round"/>
<path d="M230.474 79.9713C240.68 78.4758 249.958 80.4325 259.708 81.8274" stroke="#000000" stroke-opacity="0.9" stroke-width="16" stroke-linecap="round" stroke-linejoin="round"/>
<path d="M174.786 187.05C230.466 184.839 285.19 186.692 334.405 186.692" stroke="#000000" stroke-opacity="0.9" stroke-width="16" stroke-linecap="round" stroke-linejoin="round"/>
<path d="M338.149 190.538C335.998 249.137 340.347 307.838 340.347 366.643" stroke="#000000" stroke-opacity="0.9" stroke-width="16" stroke-linecap="round" stroke-linejoin="round"/>
<path d="M178.214 187.742C178.127 246.729 178.774 290.843 175.419 366.642" stroke="#000000" stroke-opacity="0.9" stroke-width="16" stroke-linecap="round" stroke-linejoin="round"/>
<path d="M184.069 224.739C230.468 226.629 286.979 224.275 338.119 224.275" stroke="#000000" stroke-opacity="0.5" stroke-width="16" stroke-linecap="round" stroke-linejoin="round"/>
<path d="M228.609 262.325C265.902 226.623 322.225 291.645 280.577 324.038C242.345 353.774 205.864 308.75 220.721 271.606" stroke="#000000" stroke-opacity="0.9" stroke-width="16" stroke-linecap="round" stroke-linejoin="round"/>
<path d="M302.388 199.22C311.912 202.904 304.116 213.242 296.82 204.325" stroke="#000000" stroke-opacity="0.9" stroke-width="16" stroke-linecap="round" stroke-linejoin="round"/>
<path d="M326.057 198.757C327.234 208.001 323.958 205.362 319.097 202.933" stroke="#000000" stroke-opacity="0.9" stroke-width="16" stroke-linecap="round" stroke-linejoin="round"/>
<path d="M214.687 205.252C214.807 204.114 215.307 203.086 215.615 202.004" stroke="#000000" stroke-opacity="0.9" stroke-width="16" stroke-linecap="round" stroke-linejoin="round"/>
<path d="M195.207 202.932C195.361 202.468 195.515 202.004 195.671 201.54" stroke="#000000" stroke-opacity="0.9" stroke-width="16" stroke-linecap="round" stroke-linejoin="round"/>
<path d="M63.9031 132.404C38.1638 191.092 136.534 170.915 167.378 170.915" stroke="#000000" stroke-opacity="0.9" stroke-width="16" stroke-linecap="round" stroke-linejoin="round"/>
</svg>